<mxfile host="app.diagrams.net" modified="2023-01-25T17:44:40.170Z" agent="5.0 (Windows NT 10.0; Win64; x64) AppleWebKit/537.36 (KHTML, like Gecko) Chrome/109.0.0.0 Safari/537.36" etag="OCYD1SauJO9EcAn7qCXg" version="20.8.11" type="github">
  <diagram id="4kXyg0ouCxo8H8XmWsvS" name="Página-1">
    <mxGraphModel dx="1120" dy="484" grid="1" gridSize="10" guides="1" tooltips="1" connect="1" arrows="1" fold="1" page="1" pageScale="1" pageWidth="827" pageHeight="1169" math="0" shadow="0">
      <root>
        <mxCell id="0" />
        <mxCell id="1" parent="0" />
        <mxCell id="Ceay2bRBBeD_kl4wHXzj-3" style="edgeStyle=orthogonalEdgeStyle;rounded=0;orthogonalLoop=1;jettySize=auto;html=1;exitX=1;exitY=0.5;exitDx=0;exitDy=0;entryX=0;entryY=0.5;entryDx=0;entryDy=0;" edge="1" parent="1" source="Ceay2bRBBeD_kl4wHXzj-1" target="Ceay2bRBBeD_kl4wHXzj-6">
          <mxGeometry relative="1" as="geometry">
            <mxPoint x="190" y="290" as="targetPoint" />
            <Array as="points">
              <mxPoint x="200" y="275" />
            </Array>
          </mxGeometry>
        </mxCell>
        <mxCell id="Ceay2bRBBeD_kl4wHXzj-1" value="&lt;font style=&quot;font-size: 14px;&quot;&gt;INÍCIO&lt;/font&gt;" style="ellipse;whiteSpace=wrap;html=1;" vertex="1" parent="1">
          <mxGeometry x="10" y="220" width="110" height="110" as="geometry" />
        </mxCell>
        <mxCell id="Ceay2bRBBeD_kl4wHXzj-10" style="edgeStyle=orthogonalEdgeStyle;rounded=0;orthogonalLoop=1;jettySize=auto;html=1;exitX=1;exitY=0.5;exitDx=0;exitDy=0;" edge="1" parent="1" source="Ceay2bRBBeD_kl4wHXzj-6">
          <mxGeometry relative="1" as="geometry">
            <mxPoint x="360" y="275" as="targetPoint" />
          </mxGeometry>
        </mxCell>
        <mxCell id="Ceay2bRBBeD_kl4wHXzj-6" value="&lt;font style=&quot;font-size: 11px;&quot;&gt;Q. DE PEÇAS&lt;/font&gt;" style="rounded=0;whiteSpace=wrap;html=1;shadow=0;" vertex="1" parent="1">
          <mxGeometry x="210" y="245" width="120" height="60" as="geometry" />
        </mxCell>
        <mxCell id="Ceay2bRBBeD_kl4wHXzj-14" value="" style="edgeStyle=orthogonalEdgeStyle;rounded=0;orthogonalLoop=1;jettySize=auto;html=1;" edge="1" parent="1" source="Ceay2bRBBeD_kl4wHXzj-8" target="Ceay2bRBBeD_kl4wHXzj-13">
          <mxGeometry relative="1" as="geometry" />
        </mxCell>
        <mxCell id="Ceay2bRBBeD_kl4wHXzj-15" style="edgeStyle=orthogonalEdgeStyle;rounded=0;orthogonalLoop=1;jettySize=auto;html=1;" edge="1" parent="1" source="Ceay2bRBBeD_kl4wHXzj-8" target="Ceay2bRBBeD_kl4wHXzj-12">
          <mxGeometry relative="1" as="geometry" />
        </mxCell>
        <mxCell id="Ceay2bRBBeD_kl4wHXzj-8" value="&lt;font style=&quot;font-size: 11px;&quot;&gt;1 = ENTRADA&lt;br&gt;2 =&amp;nbsp; SAIDA&lt;/font&gt;" style="rhombus;whiteSpace=wrap;html=1;shadow=0;" vertex="1" parent="1">
          <mxGeometry x="360" y="222.5" width="126" height="105" as="geometry" />
        </mxCell>
        <mxCell id="Ceay2bRBBeD_kl4wHXzj-31" value="" style="edgeStyle=orthogonalEdgeStyle;rounded=0;orthogonalLoop=1;jettySize=auto;html=1;fontSize=11;" edge="1" parent="1" source="Ceay2bRBBeD_kl4wHXzj-12" target="Ceay2bRBBeD_kl4wHXzj-30">
          <mxGeometry relative="1" as="geometry" />
        </mxCell>
        <mxCell id="Ceay2bRBBeD_kl4wHXzj-12" value="&lt;font style=&quot;font-size: 11px;&quot;&gt;Q. INSERIDA + Q. INICIAL&lt;/font&gt;" style="whiteSpace=wrap;html=1;shadow=0;" vertex="1" parent="1">
          <mxGeometry x="363" y="90" width="120" height="60" as="geometry" />
        </mxCell>
        <mxCell id="Ceay2bRBBeD_kl4wHXzj-17" style="edgeStyle=orthogonalEdgeStyle;rounded=0;orthogonalLoop=1;jettySize=auto;html=1;entryX=0;entryY=0.5;entryDx=0;entryDy=0;fontSize=11;" edge="1" parent="1" source="Ceay2bRBBeD_kl4wHXzj-13" target="Ceay2bRBBeD_kl4wHXzj-16">
          <mxGeometry relative="1" as="geometry" />
        </mxCell>
        <mxCell id="Ceay2bRBBeD_kl4wHXzj-13" value="&lt;font style=&quot;font-size: 11px;&quot;&gt;Q. INSERIDA - Q. INCIAL&lt;/font&gt;" style="whiteSpace=wrap;html=1;shadow=0;" vertex="1" parent="1">
          <mxGeometry x="363" y="400" width="120" height="60" as="geometry" />
        </mxCell>
        <mxCell id="Ceay2bRBBeD_kl4wHXzj-29" value="" style="edgeStyle=orthogonalEdgeStyle;rounded=0;orthogonalLoop=1;jettySize=auto;html=1;fontSize=11;" edge="1" parent="1" source="Ceay2bRBBeD_kl4wHXzj-16" target="Ceay2bRBBeD_kl4wHXzj-28">
          <mxGeometry relative="1" as="geometry" />
        </mxCell>
        <mxCell id="Ceay2bRBBeD_kl4wHXzj-16" value="SE Q. INSERIDA &amp;gt; Q. INCIAL &quot;SALDO INSUFICIENTE&#39;" style="whiteSpace=wrap;html=1;shadow=0;fontSize=11;" vertex="1" parent="1">
          <mxGeometry x="550" y="400" width="120" height="60" as="geometry" />
        </mxCell>
        <mxCell id="Ceay2bRBBeD_kl4wHXzj-37" value="" style="edgeStyle=orthogonalEdgeStyle;rounded=0;orthogonalLoop=1;jettySize=auto;html=1;fontSize=11;" edge="1" parent="1" source="Ceay2bRBBeD_kl4wHXzj-28" target="Ceay2bRBBeD_kl4wHXzj-36">
          <mxGeometry relative="1" as="geometry">
            <Array as="points">
              <mxPoint x="720" y="300" />
              <mxPoint x="720" y="420" />
            </Array>
          </mxGeometry>
        </mxCell>
        <mxCell id="Ceay2bRBBeD_kl4wHXzj-28" value="Q. ATUALIZADA ESTOQUE" style="ellipse;whiteSpace=wrap;html=1;fontSize=11;shadow=0;" vertex="1" parent="1">
          <mxGeometry x="560" y="260" width="100" height="80" as="geometry" />
        </mxCell>
        <mxCell id="Ceay2bRBBeD_kl4wHXzj-35" value="" style="edgeStyle=orthogonalEdgeStyle;rounded=0;orthogonalLoop=1;jettySize=auto;html=1;fontSize=11;" edge="1" parent="1" source="Ceay2bRBBeD_kl4wHXzj-30" target="Ceay2bRBBeD_kl4wHXzj-34">
          <mxGeometry relative="1" as="geometry" />
        </mxCell>
        <mxCell id="Ceay2bRBBeD_kl4wHXzj-30" value="&lt;div style=&quot;&quot;&gt;&lt;span style=&quot;font-size: 11px;&quot;&gt;Q. ATUALIZADA ESTOQUE&lt;/span&gt;&lt;br&gt;&lt;/div&gt;" style="ellipse;whiteSpace=wrap;html=1;shadow=0;align=center;" vertex="1" parent="1">
          <mxGeometry x="557.5" y="80" width="105" height="80" as="geometry" />
        </mxCell>
        <mxCell id="Ceay2bRBBeD_kl4wHXzj-32" value="NÃO" style="text;strokeColor=none;align=center;fillColor=none;html=1;verticalAlign=middle;whiteSpace=wrap;rounded=0;fontSize=11;rotation=-90;" vertex="1" parent="1">
          <mxGeometry x="580" y="360" width="40" height="20" as="geometry" />
        </mxCell>
        <mxCell id="Ceay2bRBBeD_kl4wHXzj-38" style="edgeStyle=orthogonalEdgeStyle;rounded=0;orthogonalLoop=1;jettySize=auto;html=1;exitX=0.5;exitY=0;exitDx=0;exitDy=0;entryX=0;entryY=0.5;entryDx=0;entryDy=0;fontSize=11;" edge="1" parent="1" source="Ceay2bRBBeD_kl4wHXzj-34" target="Ceay2bRBBeD_kl4wHXzj-12">
          <mxGeometry relative="1" as="geometry" />
        </mxCell>
        <mxCell id="Ceay2bRBBeD_kl4wHXzj-45" style="edgeStyle=orthogonalEdgeStyle;rounded=0;orthogonalLoop=1;jettySize=auto;html=1;exitX=0.5;exitY=1;exitDx=0;exitDy=0;fontSize=10;" edge="1" parent="1" source="Ceay2bRBBeD_kl4wHXzj-34" target="Ceay2bRBBeD_kl4wHXzj-44">
          <mxGeometry relative="1" as="geometry" />
        </mxCell>
        <mxCell id="Ceay2bRBBeD_kl4wHXzj-34" value="&lt;font style=&quot;&quot;&gt;&lt;font style=&quot;font-size: 10px;&quot;&gt;DESEJA&amp;nbsp; ADC + PEÇAS S / N&lt;/font&gt;&lt;br&gt;&lt;/font&gt;" style="rhombus;whiteSpace=wrap;html=1;shadow=0;" vertex="1" parent="1">
          <mxGeometry x="755" y="70" width="120" height="100" as="geometry" />
        </mxCell>
        <mxCell id="Ceay2bRBBeD_kl4wHXzj-42" style="edgeStyle=orthogonalEdgeStyle;rounded=0;orthogonalLoop=1;jettySize=auto;html=1;exitX=0.5;exitY=1;exitDx=0;exitDy=0;entryX=0.5;entryY=1;entryDx=0;entryDy=0;fontSize=10;" edge="1" parent="1" source="Ceay2bRBBeD_kl4wHXzj-36" target="Ceay2bRBBeD_kl4wHXzj-13">
          <mxGeometry relative="1" as="geometry" />
        </mxCell>
        <mxCell id="Ceay2bRBBeD_kl4wHXzj-46" style="edgeStyle=orthogonalEdgeStyle;rounded=0;orthogonalLoop=1;jettySize=auto;html=1;exitX=0.5;exitY=0;exitDx=0;exitDy=0;entryX=0.5;entryY=1;entryDx=0;entryDy=0;fontSize=10;" edge="1" parent="1" source="Ceay2bRBBeD_kl4wHXzj-36" target="Ceay2bRBBeD_kl4wHXzj-44">
          <mxGeometry relative="1" as="geometry" />
        </mxCell>
        <mxCell id="Ceay2bRBBeD_kl4wHXzj-36" value="&lt;font style=&quot;font-size: 10px;&quot;&gt;DESEJA&amp;nbsp; SUBTRAIR + PEÇAS&amp;nbsp; S / N&lt;/font&gt;" style="rhombus;whiteSpace=wrap;html=1;fontSize=11;shadow=0;align=center;" vertex="1" parent="1">
          <mxGeometry x="745" y="370" width="130" height="100" as="geometry" />
        </mxCell>
        <mxCell id="Ceay2bRBBeD_kl4wHXzj-40" value="SIM" style="text;html=1;align=center;verticalAlign=middle;resizable=0;points=[];autosize=1;strokeColor=none;fillColor=none;fontSize=11;" vertex="1" parent="1">
          <mxGeometry x="560" y="30" width="40" height="30" as="geometry" />
        </mxCell>
        <mxCell id="Ceay2bRBBeD_kl4wHXzj-43" value="SIM" style="text;html=1;align=center;verticalAlign=middle;resizable=0;points=[];autosize=1;strokeColor=none;fillColor=none;fontSize=10;" vertex="1" parent="1">
          <mxGeometry x="590" y="480" width="40" height="30" as="geometry" />
        </mxCell>
        <mxCell id="Ceay2bRBBeD_kl4wHXzj-44" value="&quot;SISTEMA ENCERRADO&quot;&lt;br&gt;FIM" style="ellipse;whiteSpace=wrap;html=1;shadow=0;fontSize=10;" vertex="1" parent="1">
          <mxGeometry x="860" y="230" width="120" height="80" as="geometry" />
        </mxCell>
        <mxCell id="Ceay2bRBBeD_kl4wHXzj-47" value="NAO" style="text;html=1;align=center;verticalAlign=middle;resizable=0;points=[];autosize=1;strokeColor=none;fillColor=none;fontSize=10;" vertex="1" parent="1">
          <mxGeometry x="845" y="175" width="50" height="30" as="geometry" />
        </mxCell>
        <mxCell id="Ceay2bRBBeD_kl4wHXzj-48" value="NAO" style="text;html=1;align=center;verticalAlign=middle;resizable=0;points=[];autosize=1;strokeColor=none;fillColor=none;fontSize=10;" vertex="1" parent="1">
          <mxGeometry x="835" y="315" width="50" height="30" as="geometry" />
        </mxCell>
      </root>
    </mxGraphModel>
  </diagram>
</mxfile>
